<?xml version="1.0" standalone="no"?>
<!DOCTYPE svg PUBLIC "-//W3C//DTD SVG 20010904//EN"
 "http://www.w3.org/TR/2001/REC-SVG-20010904/DTD/svg10.dtd">
<svg version="1.0" xmlns="http://www.w3.org/2000/svg"
 width="256.000000pt" height="256.000000pt" viewBox="0 0 256.000000 256.000000"
 preserveAspectRatio="xMidYMid meet">

<g transform="translate(0.000000,256.000000) scale(0.100000,-0.100000)"
fill="#000000" stroke="none">
<path d="M653 2545 c-14 -10 -43 -71 -82 -171 -99 -252 -93 -267 148 -344 86
-27 169 -50 183 -50 43 0 80 39 80 83 0 53 -21 72 -115 103 l-80 27 35 18
c119 61 294 99 458 99 302 0 571 -115 775 -332 406 -430 387 -1106 -43 -1510
-127 -120 -270 -201 -447 -255 -85 -26 -101 -27 -285 -27 -184 0 -200 1 -285
27 -181 55 -327 139 -453 261 -128 124 -215 257 -270 416 -45 132 -57 209 -56
370 2 162 24 274 83 408 38 85 40 130 8 160 -25 24 -75 29 -109 11 -30 -16
-87 -152 -129 -309 -30 -108 -37 -363 -15 -492 44 -259 159 -482 346 -668 112
-112 211 -183 353 -250 337 -161 744 -158 1080 10 242 121 462 346 571 581
148 321 157 691 25 1013 -133 321 -415 584 -746 697 -144 48 -234 63 -398 63
-173 0 -276 -17 -424 -70 -53 -18 -97 -34 -99 -34 -1 0 5 16 13 36 22 54 19
82 -14 115 -33 33 -74 38 -108 14z"/>
<path d="M1114 1753 c-12 -2 -32 -15 -45 -29 l-24 -26 0 -281 c0 -275 1 -283
23 -329 26 -53 79 -103 128 -124 25 -10 88 -14 242 -14 203 0 209 1 229 23 35
37 34 87 -2 122 -24 25 -26 25 -208 25 -171 0 -186 1 -211 21 l-26 20 0 262
c0 188 -4 269 -13 286 -13 27 -61 49 -93 44z"/>
</g>
</svg>
